<svg width="25"
    height="25"
    viewBox="0 0 25 25"
    fill="none"
    xmlns="http://www.w3.org/2000/svg">
    <path
        fill-rule="evenodd"
        clip-rule="evenodd"
        d="M12.5122 6.07144L11.4252 4.98445C9.27734 2.83656 5.79493 2.83656 3.64705 4.98445C1.49916 7.13233 1.49916 10.6147 3.64705 12.7626L12.4859 21.6015L12.4877 21.5997L12.514 21.626L21.3528 12.7872C23.5007 10.6393 23.5007 7.15687 21.3528 5.00898C19.205 2.8611 15.7226 2.8611 13.5747 5.00898L12.5122 6.07144ZM12.4877 18.7712L17.4239 13.835L18.8747 12.434L18.8762 12.4354L19.9386 11.3729C21.3055 10.0061 21.3055 7.79003 19.9386 6.4232C18.5718 5.05636 16.3557 5.05636 14.9889 6.4232L12.5133 8.8988L12.506 8.89155L12.505 8.89263L10.011 6.39866C8.64417 5.03183 6.42809 5.03183 5.06126 6.39866C3.69442 7.7655 3.69442 9.98157 5.06126 11.3484L7.60068 13.8878L7.60248 13.886L12.4877 18.7712Z"
        fill="#0F172A" />
</svg>
