<svg width="25"
    height="26"
    viewBox="0 0 25 26"
    fill="none"
    xmlns="http://www.w3.org/2000/svg">
    <path
        fill-rule="evenodd"
        clip-rule="evenodd"
        d="M6.5 23.8784C4.84315 23.8784 3.5 22.5353 3.5 20.8784V10.8784C3.5 10.8445 3.50169 10.811 3.50498 10.778H3.5C3.5 10.202 3.7288 9.64965 4.13607 9.24238L10.3787 2.99977C11.5502 1.8282 13.4497 1.8282 14.6213 2.99977L20.8639 9.24239C21.2712 9.64966 21.5 10.202 21.5 10.778H21.495C21.4983 10.811 21.5 10.8445 21.5 10.8784V20.8784C21.5 22.5353 20.1569 23.8784 18.5 23.8784H6.5ZM13.2071 4.41399L19.5 10.7069V20.8784C19.5 21.4307 19.0523 21.8784 18.5 21.8784H15.5V16.8784C15.5 15.2216 14.1569 13.8784 12.5 13.8784C10.8431 13.8784 9.5 15.2216 9.5 16.8784V21.8784H6.5C5.94772 21.8784 5.5 21.4307 5.5 20.8784V10.707L11.7929 4.41399C12.1834 4.02346 12.8166 4.02346 13.2071 4.41399Z"
        fill="#0F172A"
        fill-opacity="0.5" />
</svg>
