<svg width="19"
    height="24"
    viewBox="0 0 19 24"
    fill="none"
    xmlns="http://www.w3.org/2000/svg">
    <path
        fill-rule="evenodd"
        clip-rule="evenodd"
        d="M11.75 2.18182V2.49805C15.0029 3.43683 17.375 6.35889 17.375 9.81818V17.4545H18.5V19.6364H0.5V17.4545H1.625V9.81818C1.625 6.35889 3.99707 3.43683 7.25 2.49805V2.18182C7.25 0.976833 8.25736 0 9.5 0C10.7426 0 11.75 0.976833 11.75 2.18182ZM3.875 17.4545H15.125V9.81818C15.125 6.80572 12.6066 4.36364 9.5 4.36364C6.3934 4.36364 3.875 6.80572 3.875 9.81818V17.4545ZM11.75 21.8182V20.7273H7.25V21.8182C7.25 23.0232 8.25736 24 9.5 24C10.7426 24 11.75 23.0232 11.75 21.8182Z"
        fill="#0F172A" />
</svg>
