<svg width="25"
    height="24"
    viewBox="0 0 25 24"
    fill="none"
    xmlns="http://www.w3.org/2000/svg">
    <path
        fill-rule="evenodd"
        clip-rule="evenodd"
        d="M16.5 9C16.5 11.2091 14.7091 13 12.5 13C10.2909 13 8.5 11.2091 8.5 9C8.5 6.79086 10.2909 5 12.5 5C14.7091 5 16.5 6.79086 16.5 9ZM14.5 9C14.5 10.1046 13.6046 11 12.5 11C11.3954 11 10.5 10.1046 10.5 9C10.5 7.89543 11.3954 7 12.5 7C13.6046 7 14.5 7.89543 14.5 9Z"
        fill="#0F172A"
        fill-opacity="0.5" />
    <path
        fill-rule="evenodd"
        clip-rule="evenodd"
        d="M12.5 1C6.42487 1 1.5 5.92487 1.5 12C1.5 18.0751 6.42487 23 12.5 23C18.5751 23 23.5 18.0751 23.5 12C23.5 5.92487 18.5751 1 12.5 1ZM3.5 12C3.5 14.0902 4.21255 16.014 5.40798 17.5417C7.05245 15.3889 9.64627 14 12.5645 14C15.4448 14 18.0092 15.3531 19.6565 17.4583C20.813 15.9443 21.5 14.0524 21.5 12C21.5 7.02944 17.4706 3 12.5 3C7.52944 3 3.5 7.02944 3.5 12ZM12.5 21C10.3498 21 8.37565 20.2459 6.82767 18.9878C8.09352 17.1812 10.1911 16 12.5645 16C14.9084 16 16.9833 17.1521 18.2538 18.9209C16.6939 20.2191 14.6881 21 12.5 21Z"
        fill="#0F172A"
        fill-opacity="0.5" />
</svg>
