<svg width="23"
    height="22"
    viewBox="0 0 23 22"
    fill="none"
    xmlns="http://www.w3.org/2000/svg">
    <path
        fill-rule="evenodd"
        clip-rule="evenodd"
        d="M3.8 2.2H19.2C19.8075 2.2 20.3 2.69249 20.3 3.3V18.7C20.3 19.3075 19.8075 19.8 19.2 19.8H3.8C3.19249 19.8 2.7 19.3075 2.7 18.7V3.3C2.7 2.69249 3.19249 2.2 3.8 2.2ZM0.5 3.3C0.5 1.47746 1.97746 0 3.8 0L19.2 0C21.0225 0 22.5 1.47746 22.5 3.3V18.7C22.5 20.5225 21.0225 22 19.2 22H3.8C1.97746 22 0.5 20.5225 0.5 18.7L0.5 3.3ZM11.5 11C8.46243 11 6 8.04508 6 4.4H8.2C8.2 7.22266 10.036 8.8 11.5 8.8C12.964 8.8 14.8 7.22266 14.8 4.4H17C17 8.04508 14.5376 11 11.5 11Z"
        fill="#FFFFFF" />
</svg>
